# xmcd
#
# Track frame offsets:
#	150
#	13182
#	28092
#	42974
#	56436
#	70400
#	86787
#	100762
#	111824
#	124654
#	140026
#	155283
#	167672
#	180664
#	191466
#	205670
#	218142
#	233699
#	249908
#	264498
#
# Disc length: 3688 seconds
#
# Revision: 1
# Processed by: cddbd v1.5.2PL0 Copyright (c) Steve Scherf et al.
# Submitted via: EasyCDDAExtractor 12.0.1.1
#
DISCID=120e6614
DTITLE=Trio Parada Dura - Raridades
DYEAR=1900
DGENRE=Sertanejo
TTITLE0=As andorinhas
TTITLE1=Telefone mudo
TTITLE2=Barco de papel
TTITLE3=Bobeou a gente pimba
TTITLE4=Fuscão preto
TTITLE5=Por que você não passa lá?
TTITLE6=Panela velha
TTITLE7=Casa da esquina
TTITLE8=Beco sem saída
TTITLE9=Blusa vermelha
TTITLE10=Castelo de amor
TTITLE11=Cruz pesada
TTITLE12=Espinho na cama
TTITLE13=Homem de pedra
TTITLE14=Inferno da vida
TTITLE15=Me mata de uma vez
TTITLE16=Não quero piedade
TTITLE17=O carro e a faculdade
TTITLE18=Uma vez por mês
TTITLE19=Soca pilão
EXTD=
EXTT0=
EXTT1=
EXTT2=
EXTT3=
EXTT4=
EXTT5=
EXTT6=
EXTT7=
EXTT8=
EXTT9=
EXTT10=
EXTT11=
EXTT12=
EXTT13=
EXTT14=
EXTT15=
EXTT16=
EXTT17=
EXTT18=
EXTT19=
PLAYORDER=
